PathFileType	4	(X/Y/Z)	Walk9.trc
DataRate	CameraRate	NumFrames	NumMarkers	Units	OrigDataRate	OrigDataStartFrame	OrigNumFrames
200.000000	200.000000	8	59	mm	200.000000	276	546
Frame#	Times		LBHD		C7		RBack		LPSI		RPSI		RCAR		LElbowM		LTB1		LLFC		T10		LUA1		RElbowM		CLAV		RFA1		LCAR		RUA1		LFA1		RACR1		LACR1		LWRU		RFHD		RTH3		LWRR		RTH2		RTB1		RTB4		RTB3		RToe		RWRU		RMT1		RBHD		LFHD		RTH4		RLFC		RCAL		RWRR		RMT5		RTH1		LTH3		LTH4		RTB2		LTH1		LElbow		RMMAL		LMT1		STRN		RElbow		LTH2		LTB2		RASI		LTB3		RLMAL		LCAL		LToe		LASI		LLMAL		LMT5		LTB4		LMMAL
			X1	Y1	Z1	X2	Y2	Z2	X3	Y3	Z3	X4	Y4	Z4	X5	Y5	Z5	X6	Y6	Z6	X7	Y7	Z7	X8	Y8	Z8	X9	Y9	Z9	X10	Y10	Z10	X11	Y11	Z11	X12	Y12	Z12	X13	Y13	Z13	X14	Y14	Z14	X15	Y15	Z15	X16	Y16	Z16	X17	Y17	Z17	X18	Y18	Z18	X19	Y19	Z19	X20	Y20	Z20	X21	Y21	Z21	X22	Y22	Z22	X23	Y23	Z23	X24	Y24	Z24	X25	Y25	Z25	X26	Y26	Z26	X27	Y27	Z27	X28	Y28	Z28	X29	Y29	Z29	X30	Y30	Z30	X31	Y31	Z31	X32	Y32	Z32	X33	Y33	Z33	X34	Y34	Z34	X35	Y35	Z35	X36	Y36	Z36	X37	Y37	Z37	X38	Y38	Z38	X39	Y39	Z39	X40	Y40	Z40	X41	Y41	Z41	X42	Y42	Z42	X43	Y43	Z43	X44	Y44	Z44	X45	Y45	Z45	X46	Y46	Z46	X47	Y47	Z47	X48	Y48	Z48	X49	Y49	Z49	X50	Y50	Z50	X51	Y51	Z51	X52	Y52	Z52	X53	Y53	Z53	X54	Y54	Z54	X55	Y55	Z55	X56	Y56	Z56	X57	Y57	Z57	X58	Y58	Z58	X59	Y59	Z59

276	1.38	-452.19	1490.9	-100.11	-468.96	1355.4	-28.55	-482.93	1261	105.55	-502.12	899.21	-68.915	-514.28	904.34	30.452	-255.74	764.53	268.31	-455.98	975.14	-214.4	-256.96	347.58	-56.93	-291.72	456.37	-140.97	-485.91	1087.7	-27.454	-387.67	1121.3	-272.95	-418.27	968.46	174.01	-337.37	1286.3	-25.379	-349.99	884.94	256.43	-334.23	720.39	-332.02	-361.37	1153.3	207.03	-411.27	882.04	-311.89	-385.32	1307	124.81	-387.12	1294	-192.87	-386.41	759.47	-326.99	-276.56	1515.5	-0.68788	-378.48	549.99	174.62	-327.17	760.24	-283.2	-306.63	651.87	165.04	-411.84	332	93.565	-490.64	282.83	82.702	-560.93	224.4	69.395	-620.44	52.339	53.712	-310.64	782.11	244.04	-622.41	103.32	40.995	-454.95	1498.4	23.046	-280.44	1506.1	-77.452	-381.21	645.12	185.74	-367.73	451.91	172.76	-700.87	238.72	58.145	-244.21	804.62	218.51	-657.78	110.2	87.2	-381.82	733.68	201.01	-281.26	569.11	-150.89	-296.9	659.97	-175.11	-520.54	309.99	144.26	-317.77	748.38	-201.05	-430.11	1003.6	-283.75	-633.13	201.04	22.5	-196.38	48.549	-33.347	-269.61	1184.2	-29.727	-370.95	1010.3	247.45	-238.79	684.49	-137.08	-286.15	252.8	-119.52	-297.56	880.69	122.17	-261.36	165.13	-43.358	-659.34	202.4	96.837	-350.13	32.981	-50.884	-139.72	23.905	-39.682	-295.7	869.58	-176.89	-303.78	65.444	-88.535	-217.33	34.875	-90.738	-266.31	256.12	-52.03	-290.01	70.348	-8.8378
277	1.385	-446.2	1491.6	-100.34	-463.11	1356.1	-28.874	-477.44	1261.5	105.05	-496.67	899.77	-69.484	-508.75	904.78	29.79	-252.52	764.49	269.13	-449.93	975.65	-215.52	-255.77	347.37	-56.993	-290.03	456.22	-141.05	-480.28	1088.4	-28.078	-381.3	1121.9	-273.44	-413.91	968.94	173.84	-331.62	1286.8	-25.547	-346.08	885.3	256.55	-326.22	721.38	-332.15	-356.43	1153.6	206.89	-404.09	882.62	-312.47	-379.85	1307.4	124.62	-381.08	1294.7	-193.15	-378.63	760.14	-327.26	-270.56	1516	-0.89478	-368.87	550.78	174.45	-319.48	761.31	-283.37	-298.23	653.49	165.08	-400.05	333.13	93.637	-479	283.89	82.978	-549.27	225.77	69.49	-606.61	54.004	57.373	-307.19	782.27	244.53	-609.14	105.08	43.41	-448.96	1499.1	22.812	-274.44	1506.6	-77.639	-372.77	645.9	185.52	-356.33	453.03	172.92	-689.67	239.72	57.505	-240.51	804.45	219.34	-644.86	112.72	89.25	-374.48	734.48	200.65	-278.62	568.81	-151	-293.43	659.78	-175.38	-508.82	311.42	144.34	-313.46	748.31	-201.57	-423.55	1004.2	-284.55	-621.2	202.26	22.525	-196.38	48.47	-33.224	-263.99	1184.6	-29.839	-366.44	1010.7	247.33	-235.06	683.89	-137.53	-285.35	252.67	-119.51	-292.15	881.24	121.44	-260.9	164.94	-43.327	-647.65	204.39	97.032	-350.14	32.991	-50.798	-139.6	23.736	-39.554	-290.25	869.69	-178.22	-303.71	65.427	-88.437	-217.33	34.887	-90.675	-265.45	255.95	-52.055	-289.92	70.291	-8.7134
278	1.39	-440.2	1492.2	-100.55	-457.25	1356.8	-29.174	-471.97	1262	104.56	-491.24	900.33	-70.047	-503.26	905.23	29.138	-249.31	764.44	269.99	-443.89	976.09	-216.65	-254.57	347.16	-57.077	-288.32	456.1	-141.16	-474.68	1089.1	-28.686	-374.96	1122.5	-273.9	-409.53	969.36	173.67	-325.89	1287.3	-25.69	-342.18	885.6	256.68	-318.17	722.36	-332.29	-351.56	1153.8	206.78	-396.88	883.16	-313.06	-374.39	1307.7	124.47	-375.07	1295.3	-193.41	-370.79	760.8	-327.54	-264.55	1516.6	-1.0724	-359.34	551.59	174.18	-311.76	762.37	-283.55	-289.91	655.1	165.09	-388.23	334.29	93.606	-467.27	284.88	83.206	-537.43	226.95	69.582	-592.25	55.552	61.026	-303.75	782.38	245.04	-595.47	106.68	45.84	-442.97	1499.8	22.601	-268.43	1507.1	-77.798	-364.38	646.67	185.27	-344.92	454.21	173	-678.3	240.29	56.913	-236.8	804.26	220.21	-631.52	114.96	91.308	-367.18	735.25	200.33	-275.97	568.55	-151.13	-289.95	659.61	-175.65	-496.99	312.73	144.37	-309.13	748.26	-202.07	-417	1004.8	-285.34	-609.06	203.2	22.571	-196.37	48.403	-33.128	-258.4	1185	-29.912	-361.98	1011.1	247.22	-231.38	683.31	-137.9	-284.54	252.55	-119.54	-286.74	881.87	120.96	-260.45	164.76	-43.32	-635.72	206.03	97.236	-350.15	33	-50.726	-139.51	23.603	-39.442	-284.82	869.73	-179.53	-303.64	65.411	-88.368	-217.33	34.893	-90.628	-264.6	255.79	-52.105	-289.84	70.251	-8.6195
279	1.395	-434.21	1492.8	-100.74	-451.41	1357.4	-29.452	-466.52	1262.4	104.08	-485.83	900.89	-70.601	-497.8	905.69	28.504	-246.12	764.36	270.88	-437.86	976.47	-217.78	-253.36	346.95	-57.186	-286.59	456.02	-141.3	-469.11	1089.8	-29.276	-368.65	1123	-274.33	-405.12	969.71	173.48	-320.16	1287.7	-25.807	-338.31	885.86	256.8	-310.07	723.34	-332.43	-346.75	1154	206.68	-389.64	883.69	-313.65	-368.95	1308	124.35	-369.08	1295.8	-193.66	-362.92	761.44	-327.83	-258.54	1517	-1.2221	-349.88	552.41	173.82	-304	763.4	-283.72	-281.65	656.7	165.08	-376.36	335.47	93.481	-455.44	285.81	83.375	-525.39	227.93	69.674	-577.41	56.974	64.648	-300.32	782.46	245.56	-581.44	108.09	48.263	-436.98	1500.4	22.411	-262.43	1507.6	-77.932	-356.06	647.44	185	-333.5	455.45	173.02	-666.77	240.43	56.38	-233.11	804.04	221.13	-617.79	116.92	93.358	-359.93	735.99	200.02	-273.3	568.34	-151.27	-286.43	659.48	-175.92	-485.06	313.89	144.37	-304.77	748.23	-202.56	-410.44	1005.3	-286.12	-596.71	203.83	22.642	-196.38	48.35	-33.059	-252.81	1185.3	-29.947	-357.56	1011.4	247.13	-227.74	682.77	-138.18	-283.73	252.44	-119.59	-281.33	882.57	120.74	-260.01	164.58	-43.339	-623.55	207.32	97.45	-350.16	33.006	-50.669	-139.44	23.503	-39.346	-279.43	869.7	-180.82	-303.58	65.395	-88.326	-217.34	34.893	-90.599	-263.75	255.63	-52.182	-289.76	70.227	-8.557
280	1.4	-428.22	1493.4	-100.91	-445.56	1358	-29.71	-461.08	1262.9	103.63	-480.46	901.44	-71.142	-492.36	906.15	27.893	-242.95	764.27	271.81	-431.81	976.79	-218.89	-252.14	346.73	-57.319	-284.85	455.97	-141.48	-463.57	1090.4	-29.844	-362.37	1123.5	-274.73	-400.69	970	173.27	-314.46	1288.1	-25.898	-334.46	886.08	256.93	-301.92	724.32	-332.59	-342	1154.2	206.59	-382.38	884.19	-314.23	-363.52	1308.3	124.25	-363.1	1296.3	-193.88	-355.02	762.06	-328.13	-252.54	1517.5	-1.3452	-340.48	553.24	173.38	-296.22	764.43	-283.89	-273.47	658.31	165.05	-364.46	336.65	93.274	-443.5	286.68	83.48	-513.18	228.7	69.771	-562.12	58.262	68.214	-296.89	782.49	246.1	-567.09	109.31	50.66	-431	1501	22.24	-256.42	1508.1	-78.042	-347.78	648.18	184.7	-322.09	456.73	172.97	-655.07	240.15	55.917	-229.41	803.8	222.08	-603.71	118.58	95.388	-352.72	736.69	199.74	-270.61	568.16	-151.44	-282.87	659.38	-176.18	-473.03	314.9	144.33	-300.37	748.23	-203.02	-403.88	1005.8	-286.89	-584.17	204.16	22.745	-196.39	48.309	-33.018	-247.25	1185.6	-29.945	-353.18	1011.6	247.04	-224.11	682.25	-138.37	-282.89	252.33	-119.67	-275.92	883.34	120.78	-259.59	164.41	-43.383	-611.15	208.25	97.676	-350.19	33.011	-50.624	-139.4	23.431	-39.266	-274.07	869.61	-182.08	-303.54	65.38	-88.311	-217.35	34.886	-90.589	-262.91	255.47	-52.288	-289.7	70.218	-8.5258
281	1.405	-422.22	1494	-101.06	-439.72	1358.6	-29.951	-455.66	1263.3	103.18	-475.11	902	-71.668	-486.94	906.6	27.312	-239.79	764.17	272.77	-425.76	977.07	-219.97	-250.91	346.52	-57.479	-283.08	455.95	-141.68	-458.06	1091	-30.387	-356.12	1123.9	-275.1	-396.23	970.26	173.04	-308.76	1288.4	-25.966	-330.63	886.26	257.06	-293.74	725.3	-332.74	-337.31	1154.3	206.51	-375.09	884.68	-314.81	-358.09	1308.5	124.18	-357.15	1296.8	-194.08	-347.08	762.68	-328.44	-246.54	1517.9	-1.4432	-331.13	554.07	172.9	-288.41	765.44	-284.05	-265.35	659.91	164.98	-352.53	337.83	92.993	-431.46	287.49	83.514	-500.79	229.25	69.873	-546.42	59.409	71.698	-293.48	782.49	246.64	-552.42	110.33	53.013	-425.02	1501.5	22.086	-250.42	1508.5	-78.129	-339.56	648.92	184.38	-310.69	458.03	172.86	-643.21	239.44	55.532	-225.73	803.54	223.06	-589.3	119.94	97.39	-345.57	737.36	199.48	-267.89	568.01	-151.63	-279.28	659.3	-176.43	-460.9	315.75	144.27	-295.92	748.25	-203.45	-397.31	1006.2	-287.65	-571.43	204.18	22.883	-196.41	48.28	-33.004	-241.69	1185.8	-29.906	-348.83	1011.8	246.95	-220.5	681.74	-138.47	-282.05	252.23	-119.79	-270.5	884.16	121.07	-259.16	164.25	-43.454	-598.55	208.81	97.915	-350.21	33.014	-50.59	-139.37	23.383	-39.201	-268.74	869.48	-183.3	-303.5	65.366	-88.322	-217.36	34.872	-90.598	-262.06	255.32	-52.423	-289.63	70.224	-8.5251
282	1.41	-416.23	1494.5	-101.2	-433.88	1359.2	-30.175	-450.26	1263.7	102.76	-469.79	902.55	-72.174	-481.54	907.04	26.766	-236.65	764.05	273.74	-419.67	977.3	-221.03	-249.66	346.3	-57.666	-281.29	455.94	-141.91	-452.57	1091.6	-30.906	-349.9	1124.3	-275.44	-391.73	970.47	172.78	-303.08	1288.8	-26.011	-326.82	886.42	257.19	-285.53	726.27	-332.9	-332.67	1154.4	206.43	-367.79	885.15	-315.38	-352.68	1308.7	124.13	-351.21	1297.3	-194.26	-339.11	763.29	-328.76	-240.54	1518.3	-1.518	-321.81	554.92	172.37	-280.59	766.44	-284.22	-257.28	661.52	164.89	-340.57	338.99	92.65	-419.32	288.24	83.48	-488.22	229.59	69.982	-530.37	60.409	75.077	-290.08	782.45	247.19	-537.47	111.14	55.302	-419.04	1502	21.947	-244.42	1508.9	-78.197	-331.38	649.63	184.05	-299.31	459.37	172.69	-631.16	238.3	55.233	-222.07	803.26	224.06	-574.59	120.98	99.351	-338.46	737.99	199.21	-265.15	567.89	-151.84	-275.64	659.24	-176.67	-448.68	316.42	144.19	-291.42	748.3	-203.85	-390.75	1006.6	-288.38	-558.52	203.88	23.06	-196.43	48.262	-33.015	-236.15	1186	-29.833	-344.53	1012	246.87	-216.89	681.24	-138.51	-281.2	252.13	-119.94	-265.07	885.03	121.6	-258.75	164.09	-43.55	-585.74	209	98.167	-350.24	33.014	-50.566	-139.36	23.355	-39.151	-263.44	869.32	-184.49	-303.47	65.354	-88.357	-217.37	34.853	-90.625	-261.21	255.17	-52.587	-289.57	70.243	-8.5533
283	1.415	-410.23	1495	-101.32	-428.05	1359.7	-30.384	-444.87	1264	102.35	-464.5	903.11	-72.658	-476.14	907.46	26.259	-233.53	763.92	274.74	-413.56	977.49	-222.04	-248.38	346.08	-57.88	-279.46	455.94	-142.17	-447.09	1092.2	-31.398	-343.7	1124.7	-275.76	-387.2	970.64	172.49	-297.41	1289	-26.036	-323.04	886.55	257.32	-277.3	727.25	-333.07	-328.07	1154.4	206.35	-360.47	885.61	-315.94	-347.27	1308.9	124.08	-345.29	1297.7	-194.42	-331.12	763.89	-329.09	-234.54	1518.6	-1.5716	-312.51	555.77	171.82	-272.74	767.43	-284.37	-249.26	663.13	164.76	-328.59	340.14	92.253	-407.08	288.9	83.383	-475.48	229.71	70.099	-513.98	61.254	78.328	-286.69	782.39	247.75	-522.26	111.73	57.511	-413.07	1502.5	21.823	-238.41	1509.3	-78.246	-323.24	650.33	183.69	-287.96	460.72	172.45	-618.93	236.74	55.027	-218.42	802.95	225.09	-559.59	121.7	101.26	-331.41	738.59	198.95	-262.38	567.79	-152.07	-271.96	659.19	-176.9	-436.37	316.92	144.1	-286.86	748.36	-204.2	-384.19	1007	-289.09	-545.42	203.26	23.28	-196.45	48.256	-33.05	-230.63	1186.2	-29.728	-340.25	1012.1	246.79	-213.26	680.75	-138.47	-280.35	252.03	-120.11	-259.62	885.92	122.34	-258.33	163.94	-43.671	-572.74	208.81	98.436	-350.27	33.011	-50.549	-139.36	23.343	-39.113	-258.18	869.15	-185.64	-303.45	65.344	-88.413	-217.39	34.827	-90.669	-260.35	255.03	-52.777	-289.52	70.274	-8.6084
